<svg width="82" height="82" viewBox="0 0 82 82" fill="none" xmlns="http://www.w3.org/2000/svg">
<circle cx="40.5" cy="40.5" r="37.5" fill="#E1E1E1"/>
<circle cx="41" cy="41" r="40.5" stroke="#E1E1E1"/>
<path d="M42.1548 34.592C44.2668 34.592 46.1228 35.04 47.7228 35.936C49.3548 36.832 50.6188 38.096 51.5148 39.728C52.4108 41.36 52.8588 43.232 52.8588 45.344C52.8588 47.488 52.3628 49.392 51.3708 51.056C50.3788 52.72 48.9868 54.016 47.1948 54.944C45.4348 55.872 43.4028 56.336 41.0988 56.336C39.1148 56.336 37.1628 56 35.2428 55.328C33.3548 54.656 31.7708 53.728 30.4908 52.544C29.8508 52 29.5308 51.36 29.5308 50.624C29.5308 50.048 29.6908 49.568 30.0108 49.184C30.3308 48.768 30.7148 48.56 31.1628 48.56C31.4508 48.56 31.7068 48.608 31.9308 48.704C32.1868 48.8 32.4748 48.96 32.7948 49.184C34.1068 50.208 35.4188 50.992 36.7308 51.536C38.0748 52.048 39.4828 52.304 40.9548 52.304C43.1948 52.304 44.9388 51.712 46.1868 50.528C47.4348 49.312 48.0588 47.616 48.0588 45.44C48.0588 43.36 47.4188 41.696 46.1388 40.448C44.8908 39.2 43.2108 38.576 41.0988 38.576C39.7228 38.576 38.4908 38.816 37.4028 39.296C36.3148 39.744 35.2908 40.464 34.3308 41.456C33.8508 41.904 33.2748 42.128 32.6028 42.128C32.0588 42.128 31.5948 41.968 31.2108 41.648C30.8588 41.296 30.6828 40.848 30.6828 40.304V24.512C30.6828 23.776 30.8748 23.2 31.2588 22.784C31.6748 22.368 32.2668 22.16 33.0348 22.16H49.5468C50.2828 22.16 50.8588 22.336 51.2748 22.688C51.6908 23.04 51.8988 23.52 51.8988 24.128C51.8988 24.768 51.6908 25.264 51.2748 25.616C50.8588 25.968 50.2828 26.144 49.5468 26.144H35.5788V36.8C37.3388 35.328 39.5308 34.592 42.1548 34.592Z" fill="#181E29"/>
</svg>
