<svg width="82" height="82" viewBox="0 0 82 82" fill="none" xmlns="http://www.w3.org/2000/svg">
<circle cx="40.5" cy="40.5" r="37.5" fill="#E1E1E1"/>
<circle cx="41" cy="41" r="40.5" stroke="#E1E1E1"/>
<path d="M45.625 55.9375C39.6637 55.9375 34.51 52.565 31.945 47.625H45.625L48 42.875H30.3775C30.2587 42.0912 30.1875 41.3075 30.1875 40.5C30.1875 39.6925 30.2587 38.9088 30.3775 38.125H45.625L48 33.375H31.945C34.51 28.435 39.6875 25.0625 45.625 25.0625C49.4487 25.0625 52.9637 26.4638 55.6712 28.7913L59.875 24.5875C56.0988 21.1913 51.0875 19.125 45.625 19.125C36.315 19.125 28.43 25.0862 25.485 33.375H17.125L14.75 38.125H24.3925C24.2975 38.9088 24.25 39.6925 24.25 40.5C24.25 41.3075 24.2975 42.0912 24.3925 42.875H17.125L14.75 47.625H25.485C28.43 55.9137 36.315 61.875 45.625 61.875C51.1112 61.875 56.0988 59.8088 59.875 56.4125L55.6475 52.2088C52.9637 54.5363 49.4725 55.9375 45.625 55.9375Z" fill="#181E29"/>
</svg>
