<svg width="103" height="103" viewBox="0 0 103 103" fill="none" xmlns="http://www.w3.org/2000/svg">
<rect x="45.063" y="99.6049" width="17.6148" height="12.875" transform="rotate(-90 45.063 99.6049)" fill="#969CB2"/>
<rect x="45.063" y="81.9898" width="17.6148" height="12.875" transform="rotate(-90 45.063 81.9898)" fill="#969CB2"/>
<rect x="57.938" y="6.43793" width="17.6148" height="12.875" transform="rotate(90 57.938 6.43793)" fill="#969CB2"/>
<rect x="57.938" y="24.053" width="17.6148" height="12.875" transform="rotate(90 57.938 24.053)" fill="#969CB2"/>
<rect x="80.2924" y="103" width="27.2709" height="19.3125" transform="rotate(-180 80.2924 103)" fill="#969CB2"/>
<rect x="53.0211" y="103" width="27.2709" height="19.3125" transform="rotate(-180 53.0211 103)" fill="#969CB2"/>
<rect x="0.000488281" y="67.4174" width="27.2709" height="19.3125" transform="rotate(-90 0.000488281 67.4174)" fill="#969CB2"/>
<rect x="0.000488281" y="40.1461" width="27.2709" height="19.3125" transform="rotate(-90 0.000488281 40.1461)" fill="#969CB2"/>
<rect x="83.688" y="67.4174" width="27.2709" height="19.3125" transform="rotate(-90 83.688 67.4174)" fill="#969CB2"/>
<rect x="83.688" y="40.1461" width="27.2709" height="19.3125" transform="rotate(-90 83.688 40.1461)" fill="#969CB2"/>
<rect x="83.688" y="19.313" width="32.1872" height="19.3125" transform="rotate(-180 83.688 19.313)" fill="#969CB2"/>
<rect x="51.4997" y="19.313" width="32.1872" height="19.3125" transform="rotate(-180 51.4997 19.313)" fill="#969CB2"/>
</svg>
