<svg width="77" height="77" viewBox="0 0 77 77" fill="none" xmlns="http://www.w3.org/2000/svg">
<path d="M38.5 0C17.2553 0 0 17.2553 0 38.5C0 59.7447 17.2553 77 38.5 77C59.7447 77 77 59.7447 77 38.5C77 17.2553 59.7447 0 38.5 0ZM38.5 3.08C58.0802 3.08 73.92 18.9198 73.92 38.5C73.92 58.0802 58.0802 73.92 38.5 73.92C18.9198 73.92 3.08 58.0802 3.08 38.5C3.08 18.9198 18.9198 3.08 38.5 3.08ZM38.5 7.7C21.5079 7.7 7.7 21.5079 7.7 38.5C7.7 45.397 9.97264 51.7814 13.8089 56.9168C13.9299 57.079 14.0818 57.2157 14.2557 57.3192C14.4295 57.4226 14.6221 57.4908 14.8224 57.5199C15.0226 57.5489 15.2267 57.5382 15.4228 57.4884C15.6189 57.4386 15.8033 57.3507 15.9655 57.2296C16.1276 57.1086 16.2643 56.9568 16.3678 56.7829C16.4713 56.609 16.5395 56.4164 16.5685 56.2161C16.5976 56.0159 16.5869 55.8119 16.5371 55.6157C16.4873 55.4196 16.3993 55.2352 16.2783 55.073C12.8243 50.4493 10.78 44.7214 10.78 38.5C10.78 23.1724 23.1724 10.78 38.5 10.78C53.8276 10.78 66.22 23.1724 66.22 38.5C66.22 53.8276 53.8276 66.22 38.5 66.22C34.0291 66.22 29.8162 65.1658 26.0807 63.2904C25.9 63.1995 25.7032 63.1451 25.5014 63.1302C25.2997 63.1154 25.097 63.1405 24.9049 63.204C24.7129 63.2675 24.5352 63.3683 24.3821 63.5005C24.229 63.6327 24.1034 63.7938 24.0125 63.9745C23.9217 64.1552 23.8673 64.3521 23.8525 64.5539C23.8377 64.7556 23.8629 64.9583 23.9264 65.1503C23.99 65.3424 24.0908 65.52 24.223 65.6731C24.3553 65.8262 24.5164 65.9517 24.6971 66.0425C28.8493 68.1271 33.5436 69.3 38.5 69.3C55.4921 69.3 69.3 55.4921 69.3 38.5C69.3 21.5079 55.4921 7.7 38.5 7.7ZM38.476 20.035C38.0681 20.0414 37.6793 20.2094 37.3951 20.502C37.1109 20.7947 36.9544 21.1882 36.96 21.5961V24.4114C36.7613 24.4467 36.5624 24.4616 36.3644 24.5107C36.3634 24.5107 36.3624 24.5107 36.3614 24.5107C32.7455 25.4084 30.1232 28.5121 30.1232 32.1235C30.1232 35.7224 32.7311 38.8119 36.3283 39.7212C38.4691 40.37 39.7488 40.1009 41.24 40.7078C43.2948 41.8376 44.222 43.9601 43.6313 46.0015C43.0347 48.0626 40.9631 49.5839 38.5059 49.5839C36.0488 49.5839 33.9741 48.0626 33.3776 46.0015C33.3214 45.8072 33.2274 45.6257 33.101 45.4677C32.9747 45.3096 32.8184 45.178 32.6412 45.0803C32.4639 44.9827 32.2692 44.9209 32.0681 44.8985C31.867 44.8761 31.6634 44.8936 31.469 44.9499C31.2747 45.0062 31.0933 45.1002 30.9353 45.2266C30.7772 45.353 30.6457 45.5093 30.5481 45.6866C30.4504 45.8638 30.3887 46.0586 30.3664 46.2597C30.3441 46.4609 30.3616 46.6644 30.4179 46.8588C31.2822 49.8449 33.8788 51.9727 36.9599 52.5165V55.404C36.957 55.608 36.9947 55.8106 37.0708 56C37.1469 56.1894 37.2599 56.3617 37.4032 56.5071C37.5465 56.6524 37.7172 56.7678 37.9055 56.8466C38.0938 56.9253 38.2958 56.9659 38.4999 56.9659C38.704 56.9659 38.9061 56.9253 39.0943 56.8466C39.2826 56.7678 39.4534 56.6524 39.5966 56.5071C39.7399 56.3617 39.8529 56.1894 39.929 56C40.0051 55.8106 40.0428 55.608 40.0399 55.404V52.5195C43.1258 51.9792 45.7255 49.8488 46.5909 46.8588C47.5969 43.3824 45.9158 39.692 42.6507 37.9466C42.6104 37.9258 42.5693 37.9067 42.5273 37.8895C40.2155 36.9066 38.6627 37.2271 37.1885 36.7706C37.1606 36.7618 37.1326 36.7537 37.1043 36.7465C34.7394 36.1594 33.2031 34.2448 33.2031 32.1235C33.2031 30.0016 34.7393 28.0876 37.1043 27.5005C39.4691 26.9141 41.9502 27.8951 43.1199 29.7714C43.2269 29.9431 43.3667 30.092 43.5313 30.2097C43.6958 30.3273 43.882 30.4114 44.079 30.4571C44.2761 30.5028 44.4803 30.5092 44.6798 30.476C44.8794 30.4428 45.0704 30.3706 45.2421 30.2635C45.4138 30.1565 45.5626 30.0167 45.6802 29.852C45.7978 29.6874 45.8819 29.5013 45.9275 29.3042C45.9732 29.1071 45.9795 28.903 45.9463 28.7034C45.913 28.5039 45.8408 28.3128 45.7337 28.1412C44.4626 26.1021 42.3606 24.7826 40.0399 24.3784V21.5962C40.0427 21.3902 40.0041 21.1856 39.9265 20.9948C39.8489 20.8039 39.7337 20.6306 39.5879 20.485C39.442 20.3394 39.2685 20.2246 39.0774 20.1474C38.8864 20.0701 38.6819 20.0319 38.4758 20.0351L38.476 20.035ZM61.4135 43.7306C61.2494 43.7407 61.0928 43.8031 60.9667 43.9086C60.8406 44.0142 60.7516 44.1573 60.7127 44.3171C59.5882 48.6107 57.2392 52.4973 53.9452 55.4911C53.8669 55.5581 53.8029 55.6401 53.7569 55.7323C53.7109 55.8245 53.6839 55.9249 53.6775 56.0277C53.671 56.1305 53.6852 56.2336 53.7193 56.3308C53.7533 56.428 53.8066 56.5174 53.8758 56.5936C53.945 56.6699 54.0288 56.7315 54.1223 56.7748C54.2158 56.8181 54.317 56.8422 54.4199 56.8457C54.5228 56.8492 54.6254 56.832 54.7216 56.7951C54.8178 56.7583 54.9056 56.7025 54.9798 56.6311C58.4952 53.4362 61.0046 49.29 62.2046 44.7081C62.2361 44.596 62.2417 44.4782 62.221 44.3636C62.2004 44.2489 62.154 44.1405 62.0854 44.0464C62.0167 43.9523 61.9277 43.875 61.8248 43.8203C61.722 43.7656 61.6081 43.7349 61.4918 43.7306C61.4657 43.7293 61.4396 43.7293 61.4135 43.7306H61.4135ZM51.3705 57.6598C51.2236 57.6627 51.0806 57.7076 50.9584 57.7891C50.6391 57.9952 50.3122 58.1934 49.9809 58.3847C49.8038 58.4868 49.6745 58.6551 49.6215 58.8525C49.5685 59.0499 49.596 59.2603 49.6981 59.4374C49.8003 59.6145 49.9685 59.7438 50.1659 59.7968C50.3634 59.8498 50.5738 59.8223 50.7509 59.7201C51.1043 59.5161 51.4509 59.3024 51.7915 59.0825C51.9341 58.9932 52.0436 58.8597 52.1031 58.7024C52.1627 58.545 52.1691 58.3725 52.1213 58.2112C52.0736 58.0499 51.9743 57.9087 51.8387 57.8091C51.7031 57.7095 51.5387 57.6571 51.3705 57.6598V57.6598ZM19.2861 58.9832C18.9668 58.9729 18.6522 59.0622 18.3859 59.2387C18.1196 59.4152 17.9147 59.6701 17.7997 59.9682C17.6847 60.2662 17.6653 60.5927 17.7441 60.9023C17.8228 61.2119 17.9959 61.4894 18.2394 61.6962C18.6351 62.0421 19.0384 62.3783 19.4516 62.7039C19.6098 62.8338 19.7925 62.9309 19.9887 62.9895C20.185 63.048 20.391 63.0668 20.5946 63.0448C20.7982 63.0227 20.9954 62.9603 21.1746 62.8611C21.3538 62.7619 21.5115 62.628 21.6383 62.4672C21.7651 62.3064 21.8586 62.1219 21.9132 61.9245C21.9679 61.7271 21.9826 61.5208 21.9565 61.3176C21.9305 61.1145 21.8642 60.9186 21.7615 60.7414C21.6588 60.5642 21.5218 60.4092 21.3585 60.2856C20.9865 59.9924 20.623 59.6887 20.2667 59.3772C19.9965 59.1344 19.6492 58.9948 19.2861 58.9832Z" fill="white"/>
</svg>
