<svg width="1434" height="703" viewBox="0 0 1434 703" fill="none" xmlns="http://www.w3.org/2000/svg">
<g filter="url(#filter0_d)">
<path d="M6.46753 174.242C6.94681 174.918 7.88311 175.077 8.55882 174.598C9.23453 174.118 9.39376 173.182 8.91448 172.506L6.46753 174.242ZM1220 173.374L1220.65 174.724L1220 173.374ZM1429.88 12.743L1428.26 0.603352L1416.12 2.22443L1417.74 14.3641L1429.88 12.743ZM8.91448 172.506C8.46881 171.878 8.04493 171.346 7.65626 170.99C7.47822 170.827 7.18442 170.584 6.8009 170.451C6.59263 170.378 6.28597 170.313 5.92828 170.375C5.54343 170.442 5.2169 170.637 4.98002 170.9C4.57886 171.346 4.52307 171.879 4.50765 172.096C4.48734 172.381 4.51017 172.678 4.54615 172.952C4.61918 173.51 4.7796 174.21 5.00285 175.018C5.89592 178.249 8.0362 184.04 11.2692 191.921C17.7522 207.725 28.735 232.185 43.2818 261.975C72.3757 321.556 115.759 402.523 165.979 478.274C216.173 553.987 273.298 624.647 329.907 663.46C358.221 682.872 386.537 694.409 413.882 694.499C441.292 694.591 467.518 683.181 491.578 657.13L489.374 655.095C465.799 680.621 440.344 691.587 413.892 691.499C387.376 691.411 359.649 680.214 331.604 660.985C275.494 622.516 218.631 552.265 168.479 476.617C118.353 401.007 75.0335 320.162 45.9776 260.659C31.4495 230.907 20.4959 206.509 14.0447 190.782C10.8106 182.898 8.73432 177.257 7.89442 174.218C7.68442 173.459 7.56682 172.914 7.5207 172.563C7.4971 172.383 7.50006 172.309 7.50006 172.309C7.49992 172.311 7.49638 172.368 7.46917 172.458C7.44334 172.543 7.3762 172.723 7.20958 172.908C7.02324 173.115 6.75743 173.276 6.44349 173.33C6.15673 173.38 5.93121 173.324 5.81434 173.284C5.61363 173.214 5.54372 173.123 5.63111 173.203C5.77329 173.333 6.04641 173.648 6.46753 174.242L8.91448 172.506ZM491.578 657.13C586.978 553.835 638.592 458.951 686.44 377.308C734.298 295.648 778.343 227.325 858.609 176.632L857.007 174.095C776.077 225.208 731.726 294.105 683.852 375.791C635.969 457.493 584.515 552.08 489.374 655.095L491.578 657.13ZM858.609 176.632C898.698 151.312 932.715 142.681 963.287 142.866C993.896 143.052 1021.18 152.074 1047.86 162.294C1101.13 182.703 1152.03 207.991 1220.65 174.724L1219.34 172.024C1152.08 204.63 1102.48 180.009 1048.93 159.493C1022.2 149.251 994.487 140.056 963.305 139.866C932.087 139.677 897.516 148.511 857.007 174.095L858.609 176.632ZM1220.65 174.724C1242.06 164.343 1262.8 146.638 1282.47 126.548C1302.16 106.454 1320.89 83.8596 1338.26 63.6625C1355.67 43.4122 1371.65 25.6288 1385.93 14.9435C1393.06 9.6031 1399.65 6.13002 1405.68 4.94911C1411.63 3.78245 1417.07 4.84041 1422.09 8.67545L1423.91 6.29202C1418.16 1.8983 1411.83 0.68533 1405.1 2.00512C1398.44 3.31066 1391.43 7.08139 1384.13 12.5417C1369.54 23.4579 1353.35 41.5038 1335.98 61.7067C1318.57 81.9628 1299.92 104.446 1280.33 124.449C1260.73 144.458 1240.29 161.87 1219.34 172.024L1220.65 174.724Z" fill="#0036FF"/>
</g>
<defs>
<filter id="filter0_d" x="0.500031" y="0.603394" width="1433.38" height="701.897" filterUnits="userSpaceOnUse" color-interpolation-filters="sRGB">
<feFlood flood-opacity="0" result="BackgroundImageFix"/>
<feColorMatrix in="SourceAlpha" type="matrix" values="0 0 0 0 0 0 0 0 0 0 0 0 0 0 0 0 0 0 127 0" result="hardAlpha"/>
<feOffset dy="4"/>
<feGaussianBlur stdDeviation="2"/>
<feComposite in2="hardAlpha" operator="out"/>
<feColorMatrix type="matrix" values="0 0 0 0 1 0 0 0 0 1 0 0 0 0 1 0 0 0 0.46 0"/>
<feBlend mode="normal" in2="BackgroundImageFix" result="effect1_dropShadow"/>
<feBlend mode="normal" in="SourceGraphic" in2="effect1_dropShadow" result="shape"/>
</filter>
</defs>
</svg>
