<svg width="87" height="87" viewBox="0 0 87 87" fill="none" xmlns="http://www.w3.org/2000/svg">
<path d="M31.4627 32.8302C33.7291 32.8302 35.5664 30.9929 35.5664 28.7265C35.5664 26.46 33.7291 24.6227 31.4627 24.6227C29.1962 24.6227 27.3589 26.46 27.3589 28.7265C27.3589 30.9929 29.1962 32.8302 31.4627 32.8302Z" fill="white"/>
<path d="M55.5379 32.8302C57.8043 32.8302 59.6416 30.9929 59.6416 28.7265C59.6416 26.46 57.8043 24.6227 55.5379 24.6227C53.2714 24.6227 51.4341 26.46 51.4341 28.7265C51.4341 30.9929 53.2714 32.8302 55.5379 32.8302Z" fill="white"/>
<path d="M31.4627 47.6038C33.7291 47.6038 35.5664 45.7665 35.5664 43.5C35.5664 41.2336 33.7291 39.3962 31.4627 39.3962C29.1962 39.3962 27.3589 41.2336 27.3589 43.5C27.3589 45.7665 29.1962 47.6038 31.4627 47.6038Z" fill="white"/>
<path d="M55.5379 47.6038C57.8043 47.6038 59.6416 45.7665 59.6416 43.5C59.6416 41.2336 57.8043 39.3962 55.5379 39.3962C53.2714 39.3962 51.4341 41.2336 51.4341 43.5C51.4341 45.7665 53.2714 47.6038 55.5379 47.6038Z" fill="white"/>
<path d="M31.4627 62.3772C33.7291 62.3772 35.5664 60.5399 35.5664 58.2735C35.5664 56.007 33.7291 54.1697 31.4627 54.1697C29.1962 54.1697 27.3589 56.007 27.3589 58.2735C27.3589 60.5399 29.1962 62.3772 31.4627 62.3772Z" fill="white"/>
<path d="M55.5379 62.3772C57.8043 62.3772 59.6416 60.5399 59.6416 58.2735C59.6416 56.007 57.8043 54.1697 55.5379 54.1697C53.2714 54.1697 51.4341 56.007 51.4341 58.2735C51.4341 60.5399 53.2714 62.3772 55.5379 62.3772Z" fill="white"/>
<mask id="path-7-inside-1" fill="white">
<rect x="7" y="8" width="73" height="71" rx="4"/>
</mask>
<rect x="7" y="8" width="73" height="71" rx="4" stroke="white" stroke-width="16" mask="url(#path-7-inside-1)"/>
</svg>
