<svg width="128" height="128" viewBox="0 0 128 128" fill="none" xmlns="http://www.w3.org/2000/svg">
<rect y="64" width="90.5097" height="90.5097" rx="15" transform="rotate(-45 0 64)" fill="#121721"/>
<path d="M56.2445 23.5948L23.9204 55.919C21.7804 58.0639 20.5785 60.9701 20.5785 64C20.5785 67.0299 21.7804 69.9361 23.9204 72.081L56.2445 104.405C58.3894 106.545 61.2956 107.747 64.3256 107.747C67.3555 107.747 70.2617 106.545 72.4066 104.405L104.731 72.081C106.871 69.9361 108.073 67.0299 108.073 64C108.073 60.9701 106.871 58.0639 104.731 55.919L72.4066 23.5948C70.2617 21.4548 67.3555 20.253 64.3256 20.253C61.2956 20.253 58.3894 21.4548 56.2445 23.5948ZM57.2547 67.0304C56.6553 67.6297 55.8917 68.0379 55.0603 68.2033C54.229 68.3686 53.3673 68.2838 52.5842 67.9594C51.8011 67.635 51.1318 67.0857 50.6609 66.381C50.19 65.6762 49.9386 64.8476 49.9386 64C49.9386 63.1524 50.19 62.3238 50.6609 61.619C51.1318 60.9143 51.8011 60.365 52.5842 60.0406C53.3673 59.7162 54.229 59.6314 55.0603 59.7967C55.8917 59.9621 56.6553 60.3703 57.2547 60.9696C58.0584 61.7733 58.5099 62.8634 58.5099 64C58.5099 65.1366 58.0584 66.2267 57.2547 67.0304ZM77.4572 67.0304C76.8579 67.6297 76.0943 68.0379 75.2629 68.2033C74.4316 68.3686 73.5699 68.2838 72.7868 67.9594C72.0037 67.635 71.3344 67.0857 70.8635 66.381C70.3926 65.6762 70.1412 64.8476 70.1412 64C70.1412 63.1524 70.3926 62.3238 70.8635 61.619C71.3344 60.9143 72.0037 60.365 72.7868 60.0406C73.5699 59.7162 74.4316 59.6314 75.2629 59.7967C76.0943 59.9621 76.8579 60.3703 77.4572 60.9696C78.2609 61.7733 78.7125 62.8634 78.7125 64C78.7125 65.1366 78.2609 66.2267 77.4572 67.0304Z" fill="#4972FF"/>
</svg>
