<svg width="26" height="24" viewBox="0 0 26 24" fill="none" xmlns="http://www.w3.org/2000/svg">
<path d="M0.25 17.6667H7.33333V14.8334H0.25V17.6667ZM9.45833 17.6667H16.5417V14.8334H9.45833V17.6667ZM18.6667 17.6667H25.75V14.8334H18.6667V17.6667ZM0.25 23.3334H3.08333V20.5H0.25V23.3334ZM5.91667 23.3334H8.75V20.5H5.91667V23.3334ZM11.5833 23.3334H14.4167V20.5H11.5833V23.3334ZM17.25 23.3334H20.0833V20.5H17.25V23.3334ZM22.9167 23.3334H25.75V20.5H22.9167V23.3334ZM0.25 12H11.5833V9.16669H0.25V12ZM14.4167 12H25.75V9.16669H14.4167V12ZM0.25 0.666687V6.33335H25.75V0.666687H0.25Z" fill="#0036FF"/>
</svg>
