<svg width="96" height="96" viewBox="0 0 96 96" fill="none" xmlns="http://www.w3.org/2000/svg">
<rect x="44.0254" y="18" width="37.9747" height="37.9747" rx="4" fill="white"/>
<g filter="url(#filter0_d)">
<rect x="22" y="36.9874" width="37.9747" height="37.9747" rx="4" transform="rotate(-30 22 36.9874)" fill="white"/>
</g>
<path d="M48.0472 40.8309C48.8738 41.0575 49.5072 41.4709 49.9472 42.0709C50.4005 42.6709 50.6272 43.4042 50.6272 44.2709C50.6272 45.5109 50.1605 46.4842 49.2272 47.1909C48.2938 47.8842 47.0005 48.2309 45.3472 48.2309C43.6938 48.2309 42.4005 47.8842 41.4672 47.1909C40.5338 46.4842 40.0672 45.5109 40.0672 44.2709C40.0672 43.4042 40.2938 42.6709 40.7472 42.0709C41.2005 41.4575 41.8405 41.0442 42.6672 40.8309C41.9605 40.5642 41.4072 40.1509 41.0072 39.5909C40.6072 39.0175 40.4072 38.3509 40.4072 37.5909C40.4072 36.4175 40.8472 35.4909 41.7272 34.8109C42.6072 34.1309 43.8138 33.7909 45.3472 33.7909C46.8805 33.7909 48.0872 34.1309 48.9672 34.8109C49.8472 35.4909 50.2872 36.4175 50.2872 37.5909C50.2872 38.3642 50.0872 39.0375 49.6872 39.6109C49.2872 40.1842 48.7405 40.5909 48.0472 40.8309ZM45.3472 35.8109C43.6805 35.8109 42.8472 36.4909 42.8472 37.8509C42.8472 38.5309 43.0538 39.0509 43.4672 39.4109C43.8938 39.7575 44.5205 39.9309 45.3472 39.9309C46.1738 39.9309 46.7938 39.7575 47.2072 39.4109C47.6338 39.0509 47.8472 38.5309 47.8472 37.8509C47.8472 36.4909 47.0138 35.8109 45.3472 35.8109ZM45.3472 46.2109C47.2538 46.2109 48.2072 45.4975 48.2072 44.0709C48.2072 42.6442 47.2538 41.9309 45.3472 41.9309C43.4405 41.9309 42.4872 42.6442 42.4872 44.0709C42.4872 45.4975 43.4405 46.2109 45.3472 46.2109Z" fill="black"/>
<defs>
<filter id="filter0_d" x="0" y="0" width="95.8744" height="95.8744" filterUnits="userSpaceOnUse" color-interpolation-filters="sRGB">
<feFlood flood-opacity="0" result="BackgroundImageFix"/>
<feColorMatrix in="SourceAlpha" type="matrix" values="0 0 0 0 0 0 0 0 0 0 0 0 0 0 0 0 0 0 127 0" result="hardAlpha"/>
<feMorphology radius="2" operator="dilate" in="SourceAlpha" result="effect1_dropShadow"/>
<feOffset dy="4"/>
<feGaussianBlur stdDeviation="10"/>
<feComposite in2="hardAlpha" operator="out"/>
<feColorMatrix type="matrix" values="0 0 0 0 0 0 0 0 0 0 0 0 0 0 0 0 0 0 0.25 0"/>
<feBlend mode="normal" in2="BackgroundImageFix" result="effect1_dropShadow"/>
<feBlend mode="normal" in="SourceGraphic" in2="effect1_dropShadow" result="shape"/>
</filter>
</defs>
</svg>
