<svg width="96" height="96" viewBox="0 0 96 96" fill="none" xmlns="http://www.w3.org/2000/svg">
<rect x="44.0254" y="18" width="37.9747" height="37.9747" rx="4" fill="white"/>
<g filter="url(#filter0_d)">
<rect x="22" y="36.9873" width="37.9747" height="37.9747" rx="4" transform="rotate(-30 22 36.9873)" fill="white"/>
</g>
<path d="M46.0872 39.0509C46.9672 39.0509 47.7405 39.2442 48.4072 39.6309C49.0872 40.0042 49.6138 40.5309 49.9872 41.2109C50.3605 41.8909 50.5472 42.6709 50.5472 43.5509C50.5472 44.4709 50.3338 45.2842 49.9072 45.9909C49.4938 46.6975 48.9005 47.2509 48.1272 47.6509C47.3672 48.0375 46.4872 48.2309 45.4872 48.2309C44.6605 48.2309 43.8472 48.0975 43.0472 47.8309C42.2605 47.5509 41.5872 47.1775 41.0272 46.7109C40.7205 46.4442 40.5672 46.1309 40.5672 45.7709C40.5672 45.4775 40.6472 45.2309 40.8072 45.0309C40.9805 44.8175 41.1805 44.7109 41.4072 44.7109C41.5405 44.7109 41.6672 44.7375 41.7872 44.7909C41.9072 44.8309 42.0472 44.9042 42.2072 45.0109C42.7405 45.3842 43.2605 45.6709 43.7672 45.8709C44.2738 46.0709 44.8138 46.1709 45.3872 46.1709C46.2672 46.1709 46.9405 45.9509 47.4072 45.5109C47.8738 45.0709 48.1072 44.4442 48.1072 43.6309C48.1072 42.8442 47.8672 42.2242 47.3872 41.7709C46.9205 41.3042 46.2738 41.0709 45.4472 41.0709C44.9272 41.0709 44.4605 41.1442 44.0472 41.2909C43.6472 41.4375 43.2338 41.6842 42.8072 42.0309C42.5538 42.2042 42.2938 42.2909 42.0272 42.2909C41.7605 42.2909 41.5338 42.2109 41.3472 42.0509C41.1605 41.8909 41.0672 41.6775 41.0672 41.4109V35.1709C41.0672 34.7975 41.1738 34.5042 41.3872 34.2909C41.6005 34.0775 41.9005 33.9709 42.2872 33.9709H48.9472C49.7472 33.9709 50.1472 34.3042 50.1472 34.9709C50.1472 35.6375 49.7472 35.9709 48.9472 35.9709H43.5872V39.7709C44.2672 39.2909 45.1005 39.0509 46.0872 39.0509Z" fill="black"/>
<defs>
<filter id="filter0_d" x="0" y="0" width="95.8744" height="95.8744" filterUnits="userSpaceOnUse" color-interpolation-filters="sRGB">
<feFlood flood-opacity="0" result="BackgroundImageFix"/>
<feColorMatrix in="SourceAlpha" type="matrix" values="0 0 0 0 0 0 0 0 0 0 0 0 0 0 0 0 0 0 127 0" result="hardAlpha"/>
<feMorphology radius="2" operator="dilate" in="SourceAlpha" result="effect1_dropShadow"/>
<feOffset dy="4"/>
<feGaussianBlur stdDeviation="10"/>
<feComposite in2="hardAlpha" operator="out"/>
<feColorMatrix type="matrix" values="0 0 0 0 0 0 0 0 0 0 0 0 0 0 0 0 0 0 0.25 0"/>
<feBlend mode="normal" in2="BackgroundImageFix" result="effect1_dropShadow"/>
<feBlend mode="normal" in="SourceGraphic" in2="effect1_dropShadow" result="shape"/>
</filter>
</defs>
</svg>
