<svg width="96" height="96" viewBox="0 0 96 96" fill="none" xmlns="http://www.w3.org/2000/svg">
<rect x="44.0254" y="18" width="37.9747" height="37.9747" rx="4" fill="white"/>
<g filter="url(#filter0_d)">
<rect x="22" y="36.9874" width="37.9747" height="37.9747" rx="4" transform="rotate(-30 22 36.9874)" fill="white"/>
</g>
<path d="M44.8872 33.7909C46.6738 33.7909 48.0472 34.3975 49.0072 35.6109C49.9805 36.8109 50.4672 38.5309 50.4672 40.7709C50.4672 42.3042 50.2405 43.6375 49.7872 44.7709C49.3338 45.8909 48.6805 46.7509 47.8272 47.3509C46.9872 47.9509 45.9938 48.2509 44.8472 48.2509C44.0872 48.2509 43.3205 48.1175 42.5472 47.8509C41.7872 47.5709 41.1405 47.1975 40.6072 46.7309C40.4338 46.5842 40.3072 46.4442 40.2272 46.3109C40.1605 46.1642 40.1272 45.9909 40.1272 45.7909C40.1272 45.4975 40.2072 45.2509 40.3672 45.0509C40.5405 44.8375 40.7405 44.7309 40.9672 44.7309C41.1005 44.7309 41.2272 44.7575 41.3472 44.8109C41.4672 44.8509 41.6138 44.9242 41.7872 45.0309C42.8938 45.8042 43.8805 46.1909 44.7472 46.1909C45.7205 46.1909 46.4872 45.7442 47.0472 44.8509C47.6072 43.9442 47.9005 42.6775 47.9272 41.0509C47.6205 41.6509 47.1605 42.1309 46.5472 42.4909C45.9338 42.8375 45.2472 43.0109 44.4872 43.0109C43.6472 43.0109 42.9005 42.8242 42.2472 42.4509C41.5938 42.0642 41.0805 41.5309 40.7072 40.8509C40.3472 40.1575 40.1672 39.3709 40.1672 38.4909C40.1672 37.5842 40.3672 36.7775 40.7672 36.0709C41.1805 35.3509 41.7405 34.7909 42.4472 34.3909C43.1672 33.9909 43.9805 33.7909 44.8872 33.7909ZM45.0272 40.9709C45.7738 40.9709 46.3738 40.7375 46.8272 40.2709C47.2938 39.7909 47.5272 39.1709 47.5272 38.4109C47.5272 37.6375 47.2938 37.0175 46.8272 36.5509C46.3738 36.0709 45.7738 35.8309 45.0272 35.8309C44.2938 35.8309 43.7072 36.0709 43.2672 36.5509C42.8272 37.0175 42.6072 37.6375 42.6072 38.4109C42.6072 39.1842 42.8272 39.8042 43.2672 40.2709C43.7072 40.7375 44.2938 40.9709 45.0272 40.9709Z" fill="black"/>
<defs>
<filter id="filter0_d" x="0" y="0" width="95.8744" height="95.8744" filterUnits="userSpaceOnUse" color-interpolation-filters="sRGB">
<feFlood flood-opacity="0" result="BackgroundImageFix"/>
<feColorMatrix in="SourceAlpha" type="matrix" values="0 0 0 0 0 0 0 0 0 0 0 0 0 0 0 0 0 0 127 0" result="hardAlpha"/>
<feMorphology radius="2" operator="dilate" in="SourceAlpha" result="effect1_dropShadow"/>
<feOffset dy="4"/>
<feGaussianBlur stdDeviation="10"/>
<feComposite in2="hardAlpha" operator="out"/>
<feColorMatrix type="matrix" values="0 0 0 0 0 0 0 0 0 0 0 0 0 0 0 0 0 0 0.25 0"/>
<feBlend mode="normal" in2="BackgroundImageFix" result="effect1_dropShadow"/>
<feBlend mode="normal" in="SourceGraphic" in2="effect1_dropShadow" result="shape"/>
</filter>
</defs>
</svg>
