<svg width="96" height="96" viewBox="0 0 96 96" fill="none" xmlns="http://www.w3.org/2000/svg">
<rect x="44.0254" y="18" width="37.9747" height="37.9747" rx="4" fill="white"/>
<g filter="url(#filter0_d)">
<rect x="22" y="36.9873" width="37.9747" height="37.9747" rx="4" transform="rotate(-30 22 36.9873)" fill="white"/>
</g>
<path d="M46.2072 39.0309C47.0472 39.0309 47.7938 39.2242 48.4472 39.6109C49.1005 39.9842 49.6072 40.5175 49.9672 41.2109C50.3405 41.8909 50.5272 42.6709 50.5272 43.5509C50.5272 44.4575 50.3205 45.2709 49.9072 45.9909C49.5072 46.6975 48.9472 47.2509 48.2272 47.6509C47.5205 48.0509 46.7138 48.2509 45.8072 48.2509C44.0205 48.2509 42.6405 47.6509 41.6672 46.4509C40.7072 45.2375 40.2272 43.5109 40.2272 41.2709C40.2272 39.7375 40.4538 38.4109 40.9072 37.2909C41.3605 36.1575 42.0072 35.2909 42.8472 34.6909C43.7005 34.0909 44.7005 33.7909 45.8472 33.7909C46.6072 33.7909 47.3672 33.9309 48.1272 34.2109C48.9005 34.4775 49.5538 34.8442 50.0872 35.3109C50.2605 35.4575 50.3805 35.6042 50.4472 35.7509C50.5272 35.8842 50.5672 36.0509 50.5672 36.2509C50.5672 36.5442 50.4805 36.7975 50.3072 37.0109C50.1472 37.2109 49.9538 37.3109 49.7272 37.3109C49.5938 37.3109 49.4672 37.2909 49.3472 37.2509C49.2272 37.1975 49.0805 37.1175 48.9072 37.0109C47.8005 36.2375 46.8138 35.8509 45.9472 35.8509C44.9738 35.8509 44.2072 36.3042 43.6472 37.2109C43.0872 38.1042 42.7938 39.3642 42.7672 40.9909C43.0738 40.3909 43.5338 39.9175 44.1472 39.5709C44.7605 39.2109 45.4472 39.0309 46.2072 39.0309ZM45.6672 46.2109C46.4005 46.2109 46.9872 45.9775 47.4272 45.5109C47.8672 45.0309 48.0872 44.4042 48.0872 43.6309C48.0872 42.8575 47.8672 42.2375 47.4272 41.7709C46.9872 41.3042 46.4005 41.0709 45.6672 41.0709C44.9205 41.0709 44.3138 41.3109 43.8472 41.7909C43.3938 42.2575 43.1672 42.8709 43.1672 43.6309C43.1672 44.4042 43.3938 45.0309 43.8472 45.5109C44.3138 45.9775 44.9205 46.2109 45.6672 46.2109Z" fill="black"/>
<defs>
<filter id="filter0_d" x="0" y="0" width="95.8744" height="95.8744" filterUnits="userSpaceOnUse" color-interpolation-filters="sRGB">
<feFlood flood-opacity="0" result="BackgroundImageFix"/>
<feColorMatrix in="SourceAlpha" type="matrix" values="0 0 0 0 0 0 0 0 0 0 0 0 0 0 0 0 0 0 127 0" result="hardAlpha"/>
<feMorphology radius="2" operator="dilate" in="SourceAlpha" result="effect1_dropShadow"/>
<feOffset dy="4"/>
<feGaussianBlur stdDeviation="10"/>
<feComposite in2="hardAlpha" operator="out"/>
<feColorMatrix type="matrix" values="0 0 0 0 0 0 0 0 0 0 0 0 0 0 0 0 0 0 0.25 0"/>
<feBlend mode="normal" in2="BackgroundImageFix" result="effect1_dropShadow"/>
<feBlend mode="normal" in="SourceGraphic" in2="effect1_dropShadow" result="shape"/>
</filter>
</defs>
</svg>
