<svg width="96" height="96" viewBox="0 0 96 96" fill="none" xmlns="http://www.w3.org/2000/svg">
<rect x="44.0254" y="18" width="37.9747" height="37.9747" rx="4" fill="white"/>
<g filter="url(#filter0_d)">
<rect x="22" y="36.9874" width="37.9747" height="37.9747" rx="4" transform="rotate(-30 22 36.9874)" fill="white"/>
</g>
<path d="M46.0942 45.9909C46.8942 45.9909 47.2942 46.3309 47.2942 47.0109C47.2942 47.7175 46.8942 48.0709 46.0942 48.0709H39.3342C38.5209 48.0709 38.1142 47.7175 38.1142 47.0109C38.1142 46.3309 38.5209 45.9909 39.3342 45.9909H41.4142V36.8709L39.4942 38.0509C39.3076 38.1575 39.1409 38.2109 38.9942 38.2109C38.7142 38.2109 38.4742 38.0909 38.2742 37.8509C38.0876 37.6109 37.9942 37.3442 37.9942 37.0509C37.9942 36.6642 38.1676 36.3642 38.5142 36.1509L41.6142 34.2309C42.0142 33.9909 42.3942 33.8709 42.7542 33.8709C43.1276 33.8709 43.4276 33.9842 43.6542 34.2109C43.8809 34.4375 43.9942 34.7509 43.9942 35.1509V45.9909H46.0942ZM54.0664 48.2509C52.3997 48.2509 51.1264 47.6375 50.2464 46.4109C49.3664 45.1709 48.9264 43.3709 48.9264 41.0109C48.9264 38.6642 49.3664 36.8775 50.2464 35.6509C51.1264 34.4109 52.3997 33.7909 54.0664 33.7909C55.7331 33.7909 57.0064 34.4109 57.8864 35.6509C58.7664 36.8775 59.2064 38.6642 59.2064 41.0109C59.2064 43.3575 58.7664 45.1509 57.8864 46.3909C57.0064 47.6309 55.7331 48.2509 54.0664 48.2509ZM54.0664 46.2309C54.9731 46.2309 55.6331 45.8175 56.0464 44.9909C56.4597 44.1509 56.6664 42.8242 56.6664 41.0109C56.6664 39.1842 56.4597 37.8642 56.0464 37.0509C55.6331 36.2242 54.9731 35.8109 54.0664 35.8109C53.1597 35.8109 52.4997 36.2242 52.0864 37.0509C51.6731 37.8775 51.4664 39.1975 51.4664 41.0109C51.4664 42.8242 51.6731 44.1509 52.0864 44.9909C52.4997 45.8175 53.1597 46.2309 54.0664 46.2309Z" fill="black"/>
<defs>
<filter id="filter0_d" x="0" y="0" width="95.8744" height="95.8744" filterUnits="userSpaceOnUse" color-interpolation-filters="sRGB">
<feFlood flood-opacity="0" result="BackgroundImageFix"/>
<feColorMatrix in="SourceAlpha" type="matrix" values="0 0 0 0 0 0 0 0 0 0 0 0 0 0 0 0 0 0 127 0" result="hardAlpha"/>
<feMorphology radius="2" operator="dilate" in="SourceAlpha" result="effect1_dropShadow"/>
<feOffset dy="4"/>
<feGaussianBlur stdDeviation="10"/>
<feComposite in2="hardAlpha" operator="out"/>
<feColorMatrix type="matrix" values="0 0 0 0 0 0 0 0 0 0 0 0 0 0 0 0 0 0 0.25 0"/>
<feBlend mode="normal" in2="BackgroundImageFix" result="effect1_dropShadow"/>
<feBlend mode="normal" in="SourceGraphic" in2="effect1_dropShadow" result="shape"/>
</filter>
</defs>
</svg>
