<svg width="96" height="97" viewBox="0 0 96 97" fill="none" xmlns="http://www.w3.org/2000/svg">
<rect x="44.0254" y="18.5515" width="37.9747" height="37.9747" rx="4" fill="white"/>
<g filter="url(#filter0_d)">
<rect x="22" y="37.5389" width="37.9747" height="37.9747" rx="4" transform="rotate(-30 22 37.5389)" fill="white"/>
</g>
<path d="M43.3649 46.5424C44.1649 46.5424 44.5649 46.8824 44.5649 47.5624C44.5649 48.269 44.1649 48.6224 43.3649 48.6224H36.6049C35.7915 48.6224 35.3849 48.269 35.3849 47.5624C35.3849 46.8824 35.7915 46.5424 36.6049 46.5424H38.6849V37.4224L36.7649 38.6024C36.5782 38.709 36.4115 38.7624 36.2649 38.7624C35.9849 38.7624 35.7449 38.6424 35.5449 38.4024C35.3582 38.1624 35.2649 37.8957 35.2649 37.6024C35.2649 37.2157 35.4382 36.9157 35.7849 36.7024L38.8849 34.7824C39.2849 34.5424 39.6649 34.4224 40.0249 34.4224C40.3982 34.4224 40.6982 34.5357 40.9249 34.7624C41.1515 34.989 41.2649 35.3024 41.2649 35.7024V46.5424H43.3649ZM55.297 46.5424C56.097 46.5424 56.497 46.8824 56.497 47.5624C56.497 48.269 56.097 48.6224 55.297 48.6224H47.697C47.3504 48.6224 47.077 48.5224 46.877 48.3224C46.677 48.109 46.577 47.849 46.577 47.5424C46.577 47.1424 46.7304 46.7824 47.037 46.4624L51.597 41.5624C52.157 40.949 52.5637 40.389 52.817 39.8824C53.0837 39.3624 53.217 38.849 53.217 38.3424C53.217 37.7157 53.037 37.2357 52.677 36.9024C52.317 36.569 51.8037 36.4024 51.137 36.4024C50.5904 36.4024 50.057 36.509 49.537 36.7224C49.0304 36.9224 48.517 37.2024 47.997 37.5624C47.8637 37.6557 47.7304 37.7357 47.597 37.8024C47.4637 37.8557 47.3304 37.8824 47.197 37.8824C46.9704 37.8824 46.7704 37.7757 46.597 37.5624C46.437 37.349 46.357 37.0957 46.357 36.8024C46.357 36.6024 46.3904 36.429 46.457 36.2824C46.537 36.1357 46.657 35.9957 46.817 35.8624C47.4037 35.3957 48.0904 35.029 48.877 34.7624C49.6637 34.4824 50.4504 34.3424 51.237 34.3424C52.6104 34.3424 53.7037 34.689 54.517 35.3824C55.3437 36.0757 55.757 37.009 55.757 38.1824C55.757 38.9957 55.5837 39.7624 55.237 40.4824C54.8904 41.189 54.3037 41.9824 53.477 42.8624L50.017 46.5424H55.297Z" fill="black"/>
<defs>
<filter id="filter0_d" x="0" y="0.551514" width="95.8744" height="95.8744" filterUnits="userSpaceOnUse" color-interpolation-filters="sRGB">
<feFlood flood-opacity="0" result="BackgroundImageFix"/>
<feColorMatrix in="SourceAlpha" type="matrix" values="0 0 0 0 0 0 0 0 0 0 0 0 0 0 0 0 0 0 127 0" result="hardAlpha"/>
<feMorphology radius="2" operator="dilate" in="SourceAlpha" result="effect1_dropShadow"/>
<feOffset dy="4"/>
<feGaussianBlur stdDeviation="10"/>
<feComposite in2="hardAlpha" operator="out"/>
<feColorMatrix type="matrix" values="0 0 0 0 0 0 0 0 0 0 0 0 0 0 0 0 0 0 0.25 0"/>
<feBlend mode="normal" in2="BackgroundImageFix" result="effect1_dropShadow"/>
<feBlend mode="normal" in="SourceGraphic" in2="effect1_dropShadow" result="shape"/>
</filter>
</defs>
</svg>
